REM MD5 1d54a44b3b7320994cb4ad8cc72b17e6
FILE "Macross VF-X2 (Japan).bin" BINARY
  TRACK 01 MODE2/2352
    INDEX 01 00:00:00
  TRACK 02 AUDIO
    INDEX 00 40:42:42
    INDEX 01 40:45:42
  TRACK 03 AUDIO
    INDEX 00 45:11:42
    INDEX 01 45:14:42
REM LEADOUT 48:44:42
